<mxfile host="app.diagrams.net" modified="2023-11-29T04:37:42.325Z" agent="Mozilla/5.0 (Windows NT 10.0; Win64; x64) AppleWebKit/537.36 (KHTML, like Gecko) Chrome/119.0.0.0 Safari/537.36" etag="3ljHdKXtw8XwphQYI6vz" version="22.1.4" type="github">
  <diagram id="C5RBs43oDa-KdzZeNtuy" name="Page-1">
    <mxGraphModel dx="1456" dy="910" grid="1" gridSize="10" guides="1" tooltips="1" connect="1" arrows="1" fold="1" page="1" pageScale="1" pageWidth="827" pageHeight="1169" math="0" shadow="0">
      <root>
        <mxCell id="WIyWlLk6GJQsqaUBKTNV-0" />
        <mxCell id="WIyWlLk6GJQsqaUBKTNV-1" parent="WIyWlLk6GJQsqaUBKTNV-0" />
        <mxCell id="vtyjgrVnTe7GE00nzrDD-10" value="IBaseHandler" style="swimlane;childLayout=stackLayout;horizontal=1;startSize=26;fillColor=none;horizontalStack=0;resizeParent=1;resizeParentMax=0;resizeLast=0;collapsible=1;marginBottom=0;whiteSpace=wrap;html=1;align=center;verticalAlign=top;" vertex="1" parent="WIyWlLk6GJQsqaUBKTNV-1">
          <mxGeometry x="344" y="150" width="140" height="78" as="geometry" />
        </mxCell>
        <mxCell id="vtyjgrVnTe7GE00nzrDD-11" value="void Init()" style="text;strokeColor=none;fillColor=none;align=left;verticalAlign=top;spacingLeft=4;spacingRight=4;overflow=hidden;rotatable=0;points=[[0,0.5],[1,0.5]];portConstraint=eastwest;whiteSpace=wrap;html=1;" vertex="1" parent="vtyjgrVnTe7GE00nzrDD-10">
          <mxGeometry y="26" width="140" height="26" as="geometry" />
        </mxCell>
        <mxCell id="vtyjgrVnTe7GE00nzrDD-12" value="void Clear()" style="text;strokeColor=none;fillColor=none;align=left;verticalAlign=top;spacingLeft=4;spacingRight=4;overflow=hidden;rotatable=0;points=[[0,0.5],[1,0.5]];portConstraint=eastwest;whiteSpace=wrap;html=1;" vertex="1" parent="vtyjgrVnTe7GE00nzrDD-10">
          <mxGeometry y="52" width="140" height="26" as="geometry" />
        </mxCell>
        <mxCell id="vtyjgrVnTe7GE00nzrDD-21" value="" style="edgeStyle=orthogonalEdgeStyle;rounded=0;orthogonalLoop=1;jettySize=auto;html=1;dashed=1;dashPattern=1 1;endArrow=block;endFill=0;" edge="1" parent="WIyWlLk6GJQsqaUBKTNV-1" source="vtyjgrVnTe7GE00nzrDD-14" target="vtyjgrVnTe7GE00nzrDD-10">
          <mxGeometry relative="1" as="geometry" />
        </mxCell>
        <mxCell id="vtyjgrVnTe7GE00nzrDD-14" value="IBattleBroadcastsHandler" style="swimlane;childLayout=stackLayout;horizontal=1;startSize=26;fillColor=none;horizontalStack=0;resizeParent=1;resizeParentMax=0;resizeLast=0;collapsible=1;marginBottom=0;whiteSpace=wrap;html=1;align=center;verticalAlign=top;" vertex="1" parent="WIyWlLk6GJQsqaUBKTNV-1">
          <mxGeometry x="319" y="330" width="190" height="78" as="geometry" />
        </mxCell>
        <mxCell id="vtyjgrVnTe7GE00nzrDD-15" value="void Show(int id,object parm)" style="text;strokeColor=none;fillColor=none;align=left;verticalAlign=top;spacingLeft=4;spacingRight=4;overflow=hidden;rotatable=0;points=[[0,0.5],[1,0.5]];portConstraint=eastwest;whiteSpace=wrap;html=1;" vertex="1" parent="vtyjgrVnTe7GE00nzrDD-14">
          <mxGeometry y="26" width="190" height="26" as="geometry" />
        </mxCell>
        <mxCell id="vtyjgrVnTe7GE00nzrDD-16" value="void Hide(int id)" style="text;strokeColor=none;fillColor=none;align=left;verticalAlign=top;spacingLeft=4;spacingRight=4;overflow=hidden;rotatable=0;points=[[0,0.5],[1,0.5]];portConstraint=eastwest;whiteSpace=wrap;html=1;" vertex="1" parent="vtyjgrVnTe7GE00nzrDD-14">
          <mxGeometry y="52" width="190" height="26" as="geometry" />
        </mxCell>
        <mxCell id="vtyjgrVnTe7GE00nzrDD-22" value="IBattleBuffHandler" style="swimlane;childLayout=stackLayout;horizontal=1;startSize=26;fillColor=none;horizontalStack=0;resizeParent=1;resizeParentMax=0;resizeLast=0;collapsible=1;marginBottom=0;whiteSpace=wrap;html=1;align=center;verticalAlign=top;" vertex="1" parent="WIyWlLk6GJQsqaUBKTNV-1">
          <mxGeometry x="540" y="330" width="190" height="78" as="geometry" />
        </mxCell>
        <mxCell id="vtyjgrVnTe7GE00nzrDD-23" value="void CreateBuffGo(int id, int buffid, Transform parent);" style="text;strokeColor=none;fillColor=none;align=left;verticalAlign=top;spacingLeft=4;spacingRight=4;overflow=hidden;rotatable=0;points=[[0,0.5],[1,0.5]];portConstraint=eastwest;whiteSpace=wrap;html=1;" vertex="1" parent="vtyjgrVnTe7GE00nzrDD-22">
          <mxGeometry y="26" width="190" height="26" as="geometry" />
        </mxCell>
        <mxCell id="vtyjgrVnTe7GE00nzrDD-24" value="void ClearBuff(int id);" style="text;strokeColor=none;fillColor=none;align=left;verticalAlign=top;spacingLeft=4;spacingRight=4;overflow=hidden;rotatable=0;points=[[0,0.5],[1,0.5]];portConstraint=eastwest;whiteSpace=wrap;html=1;" vertex="1" parent="vtyjgrVnTe7GE00nzrDD-22">
          <mxGeometry y="52" width="190" height="26" as="geometry" />
        </mxCell>
        <mxCell id="vtyjgrVnTe7GE00nzrDD-25" value="IBattleRemainSoldiersHandler" style="swimlane;childLayout=stackLayout;horizontal=1;startSize=26;fillColor=none;horizontalStack=0;resizeParent=1;resizeParentMax=0;resizeLast=0;collapsible=1;marginBottom=0;whiteSpace=wrap;html=1;align=center;verticalAlign=top;" vertex="1" parent="WIyWlLk6GJQsqaUBKTNV-1">
          <mxGeometry x="770" y="330" width="260" height="108" as="geometry" />
        </mxCell>
        <mxCell id="vtyjgrVnTe7GE00nzrDD-26" value="void AddBattleRemainSoldiersInfo(int objectId, Dictionary&lt;long, BattleRemainSoldiers&gt; infos)" style="text;strokeColor=none;fillColor=none;align=left;verticalAlign=top;spacingLeft=4;spacingRight=4;overflow=hidden;rotatable=0;points=[[0,0.5],[1,0.5]];portConstraint=eastwest;whiteSpace=wrap;html=1;" vertex="1" parent="vtyjgrVnTe7GE00nzrDD-25">
          <mxGeometry y="26" width="260" height="34" as="geometry" />
        </mxCell>
        <mxCell id="vtyjgrVnTe7GE00nzrDD-27" value="Dictionary&lt;long, BattleRemainSoldiers&gt; GetBattleRemainSoldiers(long objectId);" style="text;strokeColor=none;fillColor=none;align=left;verticalAlign=top;spacingLeft=4;spacingRight=4;overflow=hidden;rotatable=0;points=[[0,0.5],[1,0.5]];portConstraint=eastwest;whiteSpace=wrap;html=1;" vertex="1" parent="vtyjgrVnTe7GE00nzrDD-25">
          <mxGeometry y="60" width="260" height="48" as="geometry" />
        </mxCell>
        <mxCell id="vtyjgrVnTe7GE00nzrDD-28" value="" style="edgeStyle=orthogonalEdgeStyle;rounded=0;orthogonalLoop=1;jettySize=auto;html=1;dashed=1;dashPattern=1 1;endArrow=block;endFill=0;exitX=0.5;exitY=0;exitDx=0;exitDy=0;" edge="1" parent="WIyWlLk6GJQsqaUBKTNV-1" source="vtyjgrVnTe7GE00nzrDD-22" target="vtyjgrVnTe7GE00nzrDD-10">
          <mxGeometry relative="1" as="geometry">
            <mxPoint x="424" y="340" as="sourcePoint" />
            <mxPoint x="424" y="238" as="targetPoint" />
          </mxGeometry>
        </mxCell>
        <mxCell id="vtyjgrVnTe7GE00nzrDD-29" value="" style="edgeStyle=orthogonalEdgeStyle;rounded=0;orthogonalLoop=1;jettySize=auto;html=1;dashed=1;dashPattern=1 1;endArrow=block;endFill=0;exitX=0.5;exitY=0;exitDx=0;exitDy=0;" edge="1" parent="WIyWlLk6GJQsqaUBKTNV-1" source="vtyjgrVnTe7GE00nzrDD-25" target="vtyjgrVnTe7GE00nzrDD-10">
          <mxGeometry relative="1" as="geometry">
            <mxPoint x="645" y="340" as="sourcePoint" />
            <mxPoint x="424" y="238" as="targetPoint" />
          </mxGeometry>
        </mxCell>
      </root>
    </mxGraphModel>
  </diagram>
</mxfile>
